<?xml version="1.0" encoding="UTF-8"?>
<!DOCTYPE svg PUBLIC "-//W3C//DTD SVG 1.1//EN" "http://www.w3.org/Graphics/SVG/1.1/DTD/svg11.dtd">
<!-- Creator: CorelDRAW 2021 (64-Bit) -->
<svg xmlns="http://www.w3.org/2000/svg" xml:space="preserve" width="30px" height="30px" version="1.1" style="shape-rendering:geometricPrecision; text-rendering:geometricPrecision; image-rendering:optimizeQuality; fill-rule:evenodd; clip-rule:evenodd"
viewBox="0 0 7.99 7.99"
 xmlns:xlink="http://www.w3.org/1999/xlink"
 xmlns:xodm="http://www.corel.com/coreldraw/odm/2003">
 <defs>
  <style type="text/css">
   <![CDATA[
    .fil0 {fill:#E0E007;fill-rule:nonzero}
    .fil1 {fill:white;fill-rule:nonzero}
   ]]>
  </style>
 </defs>
 <g id="Capa_x0020_1">
  <metadata id="CorelCorpID_0Corel-Layer"/>
  <g id="_1971423816720">
   <path class="fil0" d="M7.99 4c0,2.2 -1.79,3.99 -3.99,3.99 -2.21,0 -4,-1.79 -4,-3.99 0,-2.21 1.79,-4 4,-4 2.2,0 3.99,1.79 3.99,4z"/>
   <path class="fil1" d="M5.48 5.14l0.18 -1.15 -1.11 0 0 -0.75c0,-0.32 0.15,-0.62 0.65,-0.62l0.5 0 0 -0.99c0,0 -0.45,-0.07 -0.89,-0.07 -0.91,0 -1.51,0.55 -1.51,1.55l0 0.88 -1.01 0 0 1.15 1.01 0 0 2.8c0.2,0.03 0.41,0.04 0.62,0.04 0.22,0 0.43,-0.01 0.63,-0.04l0 -2.8 0.93 0z"/>
  </g>
 </g>
</svg>
