<?xml version="1.0" encoding="UTF-8"?>
<!DOCTYPE svg PUBLIC "-//W3C//DTD SVG 1.1//EN" "http://www.w3.org/Graphics/SVG/1.1/DTD/svg11.dtd">
<!-- Creator: CorelDRAW 2021 (64-Bit) -->
<svg xmlns="http://www.w3.org/2000/svg" xml:space="preserve" width="30px" height="30px" version="1.1" style="shape-rendering:geometricPrecision; text-rendering:geometricPrecision; image-rendering:optimizeQuality; fill-rule:evenodd; clip-rule:evenodd"
viewBox="0 0 4.76 4.76"
 xmlns:xlink="http://www.w3.org/1999/xlink"
 xmlns:xodm="http://www.corel.com/coreldraw/odm/2003">
 <defs>
  <style type="text/css">
   <![CDATA[
    .fil0 {fill:#E0E007;fill-rule:nonzero}
    .fil1 {fill:white;fill-rule:nonzero}
   ]]>
  </style>
 </defs>
 <g id="Capa_x0020_1">
  <metadata id="CorelCorpID_0Corel-Layer"/>
  <g id="_1971497854240">
   <path class="fil0" d="M4.76 2.38c0,1.31 -1.06,2.38 -2.38,2.38 -1.31,0 -2.38,-1.07 -2.38,-2.38 0,-1.31 1.07,-2.38 2.38,-2.38 1.32,0 2.38,1.07 2.38,2.38z"/>
   <path class="fil1" d="M3.12 1.48c-0.09,0 -0.16,0.07 -0.16,0.16 0,0.09 0.07,0.17 0.16,0.17 0.09,0 0.16,-0.08 0.16,-0.17 0,-0.09 -0.07,-0.16 -0.16,-0.16z"/>
   <path class="fil1" d="M2.39 2.82c-0.24,0 -0.44,-0.2 -0.44,-0.44 0,-0.25 0.2,-0.44 0.44,-0.44 0.24,0 0.44,0.19 0.44,0.44 0,0.24 -0.2,0.44 -0.44,0.44zm0 -1.13c-0.38,0 -0.69,0.31 -0.69,0.69 0,0.38 0.31,0.68 0.69,0.68 0.38,0 0.69,-0.3 0.69,-0.68 0,-0.38 -0.31,-0.69 -0.69,-0.69z"/>
   <path class="fil1" d="M1.82 1.24c-0.31,0 -0.57,0.26 -0.57,0.58l0 1.11c0,0.32 0.26,0.58 0.57,0.58l1.12 0c0.31,0 0.57,-0.26 0.57,-0.58l0 -1.11c0,-0.32 -0.26,-0.58 -0.57,-0.58l-1.12 0zm1.12 2.53l-1.12 0c-0.46,0 -0.84,-0.37 -0.84,-0.84l0 -1.11c0,-0.46 0.38,-0.84 0.84,-0.84l1.12 0c0.46,0 0.84,0.38 0.84,0.84l0 1.11c0,0.47 -0.38,0.84 -0.84,0.84z"/>
  </g>
 </g>
</svg>
