<?xml version="1.0" encoding="UTF-8"?>
<!DOCTYPE svg PUBLIC "-//W3C//DTD SVG 1.1//EN" "http://www.w3.org/Graphics/SVG/1.1/DTD/svg11.dtd">
<!-- Creator: CorelDRAW 2021 (64-Bit) -->
<svg xmlns="http://www.w3.org/2000/svg" xml:space="preserve" width="30px" height="30px" version="1.1" style="shape-rendering:geometricPrecision; text-rendering:geometricPrecision; image-rendering:optimizeQuality; fill-rule:evenodd; clip-rule:evenodd"
viewBox="0 0 2.14 2.14"
 xmlns:xlink="http://www.w3.org/1999/xlink"
 xmlns:xodm="http://www.corel.com/coreldraw/odm/2003">
 <defs>
  <style type="text/css">
   <![CDATA[
    .fil0 {fill:lime;fill-rule:nonzero}
    .fil1 {fill:white;fill-rule:nonzero}
   ]]>
  </style>
 </defs>
 <g id="Capa_x0020_1">
  <metadata id="CorelCorpID_0Corel-Layer"/>
  <g id="_2007589324768">
   <path class="fil0" d="M2.14 1.07c0,0.59 -0.48,1.07 -1.07,1.07 -0.59,0 -1.07,-0.48 -1.07,-1.07 0,-0.59 0.48,-1.07 1.07,-1.07 0.59,0 1.07,0.48 1.07,1.07z"/>
   <path class="fil1" d="M1.63 0.95c-0.01,0 -0.02,0 -0.04,0 -0.12,0 -0.23,-0.06 -0.29,-0.16l0 0.55c0,0.22 -0.19,0.41 -0.41,0.41 -0.23,0 -0.41,-0.19 -0.41,-0.41 0,-0.23 0.18,-0.41 0.41,-0.41 0.01,0 0.01,0 0.02,0l0 0.2c-0.01,0 -0.01,0 -0.02,0 -0.12,0 -0.21,0.09 -0.21,0.21 0,0.11 0.09,0.21 0.21,0.21 0.11,0 0.21,-0.09 0.21,-0.21l0.01 -0.93 0.19 0c0.02,0.17 0.16,0.3 0.33,0.31l0 0.23 0 0z"/>
  </g>
 </g>
</svg>
