<?xml version="1.0" encoding="UTF-8"?>
<!DOCTYPE svg PUBLIC "-//W3C//DTD SVG 1.1//EN" "http://www.w3.org/Graphics/SVG/1.1/DTD/svg11.dtd">
<!-- Creator: CorelDRAW 2021 (64-Bit) -->
<svg xmlns="http://www.w3.org/2000/svg" xml:space="preserve" width="30px" height="30px" version="1.1" style="shape-rendering:geometricPrecision; text-rendering:geometricPrecision; image-rendering:optimizeQuality; fill-rule:evenodd; clip-rule:evenodd"
viewBox="0 0 3.41 3.41"
 xmlns:xlink="http://www.w3.org/1999/xlink"
 xmlns:xodm="http://www.corel.com/coreldraw/odm/2003">
 <defs>
  <style type="text/css">
   <![CDATA[
    .fil2 {fill:white}
    .fil0 {fill:#6666FF;fill-rule:nonzero}
    .fil1 {fill:white;fill-rule:nonzero}
   ]]>
  </style>
 </defs>
 <g id="Capa_x0020_1">
  <metadata id="CorelCorpID_0Corel-Layer"/>
  <g id="_1971502038544">
   <path class="fil0" d="M3.41 1.7c0,0.94 -0.77,1.71 -1.71,1.71 -0.94,0 -1.7,-0.77 -1.7,-1.71 0,-0.94 0.76,-1.7 1.7,-1.7 0.94,0 1.71,0.76 1.71,1.7z"/>
   <path class="fil1" d="M1.34 2.33l0.04 0.02c0.12,0.07 0.26,0.11 0.4,0.11 0.44,0 0.79,-0.36 0.79,-0.8 0,-0.43 -0.35,-0.79 -0.79,-0.79 -0.44,0 -0.79,0.36 -0.79,0.79 0,0.15 0.04,0.29 0.11,0.42l0.02 0.03 -0.08 0.3 0.3 -0.08zm-0.56 0.34l0.15 -0.53c-0.09,-0.15 -0.13,-0.31 -0.13,-0.48 0,-0.53 0.44,-0.97 0.98,-0.97 0.54,0 0.98,0.44 0.98,0.97 0,0.54 -0.44,0.98 -0.98,0.98 -0.16,0 -0.32,-0.04 -0.46,-0.12l-0.54 0.15z"/>
   <path class="fil2" d="M2.15 1.8c-0.05,-0.02 -0.1,-0.05 -0.15,-0.03 -0.03,0.01 -0.05,0.07 -0.08,0.1 -0.01,0.02 -0.02,0.02 -0.04,0.01 -0.14,-0.05 -0.24,-0.15 -0.32,-0.27 -0.01,-0.02 -0.01,-0.04 0,-0.05 0.03,-0.03 0.06,-0.06 0.06,-0.1 0.01,-0.03 -0.01,-0.08 -0.02,-0.11 -0.02,-0.04 -0.04,-0.1 -0.09,-0.12 -0.03,-0.02 -0.08,-0.01 -0.12,0.02 -0.05,0.04 -0.08,0.12 -0.08,0.19 0,0.02 0,0.04 0.01,0.06 0.01,0.05 0.03,0.1 0.06,0.14 0.01,0.03 0.03,0.07 0.06,0.1 0.07,0.09 0.16,0.18 0.27,0.25 0.05,0.03 0.11,0.06 0.16,0.08 0.07,0.02 0.13,0.04 0.2,0.03 0.07,-0.02 0.15,-0.06 0.18,-0.14 0.01,-0.02 0.01,-0.04 0.01,-0.06 -0.01,-0.05 -0.08,-0.08 -0.11,-0.1z"/>
  </g>
 </g>
</svg>
