<?xml version="1.0" encoding="UTF-8"?>
<!DOCTYPE svg PUBLIC "-//W3C//DTD SVG 1.1//EN" "http://www.w3.org/Graphics/SVG/1.1/DTD/svg11.dtd">
<!-- Creator: CorelDRAW 2021 (64-Bit) -->
<svg xmlns="http://www.w3.org/2000/svg" xml:space="preserve" width="30px" height="30px" version="1.1" style="shape-rendering:geometricPrecision; text-rendering:geometricPrecision; image-rendering:optimizeQuality; fill-rule:evenodd; clip-rule:evenodd"
viewBox="0 0 2.62 2.62"
 xmlns:xlink="http://www.w3.org/1999/xlink"
 xmlns:xodm="http://www.corel.com/coreldraw/odm/2003">
 <defs>
  <style type="text/css">
   <![CDATA[
    .fil0 {fill:#FF0007;fill-rule:nonzero}
    .fil1 {fill:white;fill-rule:nonzero}
   ]]>
  </style>
 </defs>
 <g id="Capa_x0020_1">
  <metadata id="CorelCorpID_0Corel-Layer"/>
  <g id="_2007589356736">
   <path class="fil0" d="M2.62 1.31c0,0.73 -0.58,1.31 -1.31,1.31 -0.72,0 -1.31,-0.58 -1.31,-1.31 0,-0.72 0.59,-1.31 1.31,-1.31 0.73,0 1.31,0.59 1.31,1.31z"/>
   <path class="fil1" d="M1.54 1.34l-0.36 0.17c-0.02,0.01 -0.06,0 -0.06,-0.01l0 -0.37c0,-0.02 0.05,-0.03 0.06,-0.02l0.35 0.19c0.01,0.01 0.02,0.03 0.01,0.04zm0.47 -0.22c0,-0.17 -0.14,-0.31 -0.31,-0.31l-0.81 0c-0.17,0 -0.31,0.14 -0.31,0.31l0 0.38c0,0.17 0.14,0.31 0.31,0.31l0.81 0c0.17,0 0.31,-0.14 0.31,-0.31l0 -0.38z"/>
  </g>
 </g>
</svg>
